<svg xmlns="http://www.w3.org/2000/svg" width="172" height="54"><linearGradient id="a" x1="42.74" x2="11.99" y1="32.878" y2="22.128" gradientUnits="userSpaceOnUse"><stop offset="0" stop-color="#620EA0"/><stop offset="1" stop-color="#CE203A"/></linearGradient><path fill="url(#a)" d="M41.73 11.8c-2.96 0-2.96 0-2.96 0 0 18.83 0 18.83 0 18.83 0 8.6-7.24 15.82-15.62 15.82-8.6 0-15.62-7.23-15.62-15.82s6.98-15.8 15.62-15.8c1.35-.02 1.35-.02 1.35-.02 0 11.57 0 11.57 0 11.57-1.35 0-1.35 0-1.35 0-2.4 0-4.32 2.15-4.32 4.3 0 2.17 1.9 4.28 4.32 4.28s4.32-2.16 4.32-4.32c0-9.94 0-19.88 0-29.83 0-.8 0-.8 0-.8 4.32 0 4.32 0 4.32 0 0 .8 0 .8 0 .8 0 9.95 0 19.9 0 29.84 0 4.82-3.78 8.58-8.6 8.58-4.57 0-8.6-4-8.6-8.58 0-4.02 2.72-7.54 6.44-8.34 0-2.96 0-2.96 0-2.96-5.43 1.15-9.44 5.92-9.44 11.3 0 6.17 5.07 11.55 11.55 11.55S34.7 36.8 34.7 30.62c0-7.53 0-14.76 0-22.3 0-.8 0-.8 0-.8.8 0 .8 0 .8 0 3.22 0 6.43 0 9.95 0 .8 0 .8 0 .8 0 0 23.15 0 23.15 0 23.15 0 12.6-10.2 23.15-22.85 23.15S.6 43.3.6 30.58s10.2-23.1 22.55-23.1c1.36 0 1.36 0 1.36 0 0 4.32 0 4.32 0 4.32-1.35-.05-1.35-.05-1.35-.05-10.2 0-18.53 8.6-18.53 18.83s8.33 18.84 18.53 18.84 18.53-8.6 18.53-18.84l.05-18.78z"/><g fill="#333"><path d="M76.88 32.14v6.93c-1.9 1.36-4.87 2.3-7.38 2.3-5.37 0-9.44-3.9-9.44-9.03s4.22-9 9.8-9c2.66 0 5.42 1.02 7.23 2.67l-2.53 3.08c-1.3-1.2-3.1-1.9-4.72-1.9-2.9 0-5.12 2.25-5.12 5.26 0 3 2.26 5.27 5.17 5.27.9 0 2.06-.3 3.12-.84v-4.72h3.86zM87.53 36.2H84v4.98h-4.5V23.5h7.88c4.67 0 7.38 2.26 7.38 6.18 0 2.7-1.15 4.62-3.2 5.72l3.7 5.88h-5.12l-2.6-5.07zm-.1-3.56c1.96 0 3.1-.95 3.1-2.86 0-1.8-1.14-2.76-3.1-2.76H84v5.67l3.43-.06zM115.8 32.3c0 5.16-4.1 9.08-9.6 9.08-5.46 0-9.58-3.92-9.58-9.1s4.12-8.98 9.6-8.98c5.47 0 9.58 3.87 9.58 9zm-14.56.04c0 2.96 2.3 5.27 5.02 5.27s4.92-2.3 4.92-5.26-2.16-5.27-4.92-5.27-5.02 2.26-5.02 5.27zM135.8 32.3c0 5.16-4.13 9.08-9.6 9.08s-9.6-3.92-9.6-9.1 4.13-8.98 9.6-8.98c5.52 0 9.6 3.87 9.6 9zm-14.52.04c0 2.96 2.3 5.27 5.02 5.27s4.92-2.3 4.92-5.26-2.16-5.27-4.92-5.27-5.02 2.26-5.02 5.27zM143.02 41.18l-6.88-17.73h4.82l4.52 13 4.52-13h4.62l-6.98 17.73h-4.62zM165.52 41.18H161v-5.63l-6.53-12.1H159l4.26 7.74 4.22-7.75H172l-6.48 12v5.73z"/></g></svg>